<svg xmlns="http://www.w3.org/2000/svg" style="display: none;">
  
  <symbol id="brain" viewBox="0 0 24 24">
    <path fill="currentColor" d="M13,3V9H21V3M13,21H21V11H13M3,21H11V15H3M3,13H11V3H3V13Z" />
  </symbol>
  
  <symbol id="capsules" viewBox="0 0 24 24">
    <path fill="currentColor" d="M3 6V18H5V6H3M7 6V18H9V6H7M11 6V18H13V6H11M15 6V18H17V6H15M19 6V18H21V6H19Z" />
  </symbol>
  
  <symbol id="vitamin" viewBox="0 0 24 24">
    <path fill="currentColor" d="M12 2L4 5V9C4 16 7 21.5 12 23C17 21.5 20 16 20 9V5L12 2M15.9 16.5C14.8 17.4 13.5 18 12 18S9.2 17.4 8.1 16.5C6.5 15 5.2 12.8 5 9.7V6.1L12 3.4L19 6.1V9.7C18.8 12.8 17.5 15 15.9 16.5Z" />
  </symbol>
  
  <symbol id="leaf" viewBox="0 0 24 24">
    <path fill="currentColor" d="M17,8C8,10 5.9,16.17 3.82,21.34L5.71,22L6.66,19.7C7.14,19.87 7.64,20 8,20C19,20 22,3 22,3C21,5 14,5.25 9,6.25C4,7.25 2,11.5 2,13.5C2,15.5 3.75,17.25 3.75,17.25C7,8 17,8 17,8Z" />
  </symbol>
  
  <symbol id="herb" viewBox="0 0 24 24">
    <path fill="currentColor" d="M6,2C4.89,2 4,2.89 4,4V20A2,2 0 0,0 6,22H18A2,2 0 0,0 20,20V4C20,2.89 19.1,2 18,2H6M12,4A4,4 0 0,1 16,8A4,4 0 0,1 12,12A4,4 0 0,1 8,8A4,4 0 0,1 12,4M12,14C16.42,14 20,15.79 20,18V20H4V18C4,15.79 7.58,14 12,14Z" />
  </symbol>
  
  <symbol id="bacteria" viewBox="0 0 24 24">
    <path fill="currentColor" d="M19.5 8.5C19.5 5.46 17.04 3 14 3S8.5 5.46 8.5 8.5 10.96 14 14 14s5.5-2.46 5.5-5.5m-1 0C18.5 6.57 16.43 4.5 14.5 4.5S10.5 6.57 10.5 8.5s2.07 4 4 4 4-2.07 4-4M6.5 9C4.57 9 3 10.57 3 12.5S4.57 16 6.5 16 10 14.43 10 12.5 8.43 9 6.5 9m0 1C7.88 10 9 11.12 9 12.5S7.88 15 6.5 15 4 13.88 4 12.5 5.12 10 6.5 10m5.5 5c-2.21 0-4 1.79-4 4s1.79 4 4 4 4-1.79 4-4-1.79-4-4-4m0 1c1.65 0 3 1.35 3 3s-1.35 3-3 3-3-1.35-3-3 1.35-3 3-3m4.5-4c-1.38 0-2.5 1.12-2.5 2.5s1.12 2.5 2.5 2.5 2.5-1.12 2.5-2.5-1.12-2.5-2.5-2.5m0 1c.83 0 1.5.67 1.5 1.5s-.67 1.5-1.5 1.5-1.5-.67-1.5-1.5 .67-1.5 1.5-1.5" />
  </symbol>

</svg>